<?xml version="1.0" encoding="UTF-8" standalone="no"?>
<svg
   xmlns:dc="http://purl.org/dc/elements/1.1/"
   xmlns:cc="http://creativecommons.org/ns#"
   xmlns:rdf="http://www.w3.org/1999/02/22-rdf-syntax-ns#"
   xmlns:svg="http://www.w3.org/2000/svg"
   xmlns="http://www.w3.org/2000/svg"
   style="shape-rendering:crispEdges"
   version="1.1"
   id="svg922"
   width="192"
   height="192"
   viewBox="0 0 191.99999 192">
  <metadata
     id="metadata928">
    <rdf:RDF>
      <cc:Work
         rdf:about="">
        <dc:format>image/svg+xml</dc:format>
        <dc:type
           rdf:resource="http://purl.org/dc/dcmitype/StillImage" />
        <dc:title></dc:title>
      </cc:Work>
    </rdf:RDF>
  </metadata>
  <defs
     id="defs926" />
  <g
     transform="matrix(0.95521185,0,0,0.95521185,24.860642,1.0975131e-6)"
     id="Rogue-Designs-Logo-Expanded-Lettering-150x200-ID">
    <title
       id="title25">Rogue Designs Logo Expanded Lettering 150x200</title>
    <path
       id="Rogue-Logo-Outline-ID"
       d="m 0.4999977,194.57551 c 0,-5.12693 0.0299114,-5.927 0.22158686,-5.927 0.12187278,0 0.47696854,-0.3231 0.78910174,-0.71797 0.3121331,-0.39487 0.8577276,-0.98014 1.2124323,-1.30059 0.7182805,-0.64893 1.5342409,-2.22492 1.8844348,-3.63969 0.1182983,-0.47793 0.3902463,-1.48413 0.6043292,-2.23602 0.2140827,-0.75189 0.4848079,-1.91449 0.6016114,-2.58355 0.1580673,-0.90544 0.4267178,-1.64115 1.0506539,-2.87725 0.8053355,-1.59547 0.8382839,-1.70702 0.8382839,-2.83805 0,-1.10674 0.043892,-1.26598 0.7326325,-2.65801 0.8912147,-1.80125 1.4501994,-2.99716 1.6522477,-3.53484 0.0834,-0.22196 0.420018,-0.84532 0.748034,-1.38525 0.328015,-0.53991 0.64167,-1.13483 0.69701,-1.32201 0.05534,-0.18721 0.364134,-0.72248 0.686209,-1.18949 0.322075,-0.46703 0.585592,-0.90042 0.585592,-0.96309 0,-0.0627 0.341741,-0.58235 0.759424,-1.1548 0.67801,-0.92926 1.305518,-2.09549 1.77277,-3.29471 l 0.159651,-0.40975 1.842655,0.0917 c 1.470513,0.0732 1.952322,0.0455 2.385671,-0.13707 0.298659,-0.12585 1.176456,-0.30817 1.950659,-0.40514 3.345914,-0.41909 3.476563,-0.44951 4.483683,-1.0438 1.637006,-0.96595 2.605202,-1.35267 4.726597,-1.88789 0.577695,-0.14574 1.114501,-0.32348 1.192903,-0.39498 0.0784,-0.0715 0.323894,-0.12997 0.545537,-0.12997 0.42819,0 0.731466,-0.13741 1.747257,-0.79161 0.349104,-0.22483 0.711645,-0.4088 0.805651,-0.4088 0.367641,0 1.953447,-1.09942 2.529105,-1.75341 l 0.607057,-0.68965 v -1.47053 c 0,-0.80879 0.06165,-1.50863 0.136995,-1.55519 0.07535,-0.0466 0.183887,-0.36223 0.241201,-0.70147 0.118557,-0.70174 0.554147,-1.74768 1.067329,-2.56289 0.268844,-0.42706 0.48025,-0.5788 0.91504,-0.65672 0.730499,-0.13093 1.004573,-0.38276 1.484789,-1.36428 0.280346,-0.57301 0.538998,-0.87249 0.902555,-1.04501 0.507834,-0.24098 1.854323,-2.02051 1.854323,-2.45067 0,-0.11252 0.398651,-0.61974 0.885892,-1.12715 0.56443,-0.5878 0.952719,-1.1456 1.070051,-1.53722 0.174217,-0.58149 0.154952,-0.67411 -0.356943,-1.71607 -0.414279,-0.84326 -0.568359,-1.38275 -0.65741,-2.30181 -0.08798,-0.90804 -0.170459,-1.20041 -0.338628,-1.20041 -0.163204,0 -0.269082,0.31918 -0.398199,1.20041 -0.218729,1.49283 -0.634316,3.48064 -0.795785,3.80635 -0.372505,0.75139 -0.821317,2.00315 -0.989871,2.7608 -0.310696,1.39659 -1.10474,1.80465 -1.348858,0.69318 -0.09269,-0.42202 0.375041,-2.33694 0.91209,-3.73414 0.287224,-0.74725 0.430362,-4.48446 0.221042,-5.77116 -0.201844,-1.24071 -0.332711,-1.43128 -0.982913,-1.43128 -0.383136,0 -0.586619,0.11776 -0.919445,0.53207 -0.926587,1.15344 -1.752738,2.0188 -1.927333,2.0188 -0.276744,0 -1.555665,1.17574 -1.806457,1.66072 -0.121148,0.23427 -0.273314,0.7836 -0.338149,1.22073 l -0.117881,0.79479 -0.612576,-0.038 c -1.062443,-0.066 -1.617249,0.28199 -2.149988,1.34843 -0.632698,1.26651 -0.892785,1.46445 -1.932009,1.47031 -0.5049,0.003 -0.963641,0.0936 -1.137437,0.22507 -0.460755,0.34851 -0.620214,0.25639 -0.245902,-0.14205 0.226906,-0.24153 0.308812,-0.46195 0.245629,-0.66102 -0.123298,-0.38848 0.438142,-0.79482 1.762344,-1.27548 1.196813,-0.43442 2.52277,-1.45241 1.8918,-1.45241 -0.08998,0 -0.419764,-0.18414 -0.732868,-0.4092 -0.953298,-0.68524 -1.12046,-1.39803 -1.109266,-4.73004 0.0052,-1.5474 -0.03902,-2.81345 -0.09827,-2.81345 -0.230308,0 -0.471406,1.93603 -0.437972,3.5169 0.03389,1.60241 -0.06224,2.26251 -0.307408,2.11099 -0.06436,-0.0398 -0.161566,-0.39388 -0.216023,-0.78691 -0.05445,-0.39301 -0.15642,-0.88339 -0.22659,-1.0897 -0.269622,-0.79279 -0.507506,-3.31292 -0.329517,-3.49091 0.09369,-0.0937 0.170337,-0.31283 0.170337,-0.487 0,-0.17416 0.167043,-0.74291 0.371205,-1.26387 0.204162,-0.52095 0.450225,-1.36091 0.546809,-1.86656 0.200752,-1.05103 0.862221,-2.62145 1.232409,-2.92593 0.222257,-0.18279 0.250388,-0.16271 0.250388,0.17871 0,0.21155 -0.06752,0.42638 -0.15005,0.47738 -0.183611,0.11348 -0.200572,0.67523 -0.02039,0.67523 0.07132,0 0.250553,-0.32074 0.398304,-0.71274 0.304128,-0.8069 1.064551,-1.98817 1.279848,-1.98817 0.192537,0 0.182286,0.40806 -0.01329,0.52894 -0.348818,0.21557 -0.894524,1.30428 -1.268765,2.53122 -0.218201,0.71537 -0.518897,1.58554 -0.668215,1.93371 -0.229712,0.53562 -0.263873,0.96847 -0.222008,2.81308 0.04668,2.05673 0.07639,2.24347 0.525228,3.30112 0.809183,1.90676 1.219515,2.29059 2.651895,2.4806 0.689156,0.0914 0.780064,0.068 0.98942,-0.25431 0.126795,-0.19523 0.360915,-0.82763 0.520267,-1.40533 0.159353,-0.5777 0.669993,-1.88118 1.134756,-2.89663 0.464764,-1.01545 0.845024,-1.90874 0.845024,-1.98508 0,-0.0764 0.270091,-0.80871 0.600203,-1.62749 0.726827,-1.80273 0.741024,-1.96866 0.168429,-1.96866 -0.237478,0 -0.506603,-0.0902 -0.598054,-0.20036 -0.09145,-0.11019 -0.433031,-0.28839 -0.759063,-0.39598 -0.723184,-0.23867 -1.669906,-1.3422 -2.044015,-2.38256 -0.193771,-0.53886 -0.368695,-0.76329 -0.689219,-0.88428 -0.461156,-0.17406 -0.580915,-0.58521 -0.193662,-0.66486 0.237566,-0.0489 0.918358,-1.14808 1.656369,-2.6744 0.219472,-0.4539 0.470571,-0.96032 0.557998,-1.12538 0.08742,-0.16506 0.345204,-0.66071 0.572842,-1.10146 0.227638,-0.44074 0.491282,-0.89461 0.585876,-1.00859 0.295561,-0.35613 0.416096,-1.19479 0.223454,-1.55475 -0.141903,-0.26514 -0.209908,-0.29211 -0.338308,-0.13413 -0.08839,0.10874 -0.187436,0.33276 -0.220112,0.49781 -0.0351,0.17732 -0.168459,0.29092 -0.325936,0.27765 -0.191419,-0.0161 -0.42652,0.30101 -0.834269,1.12538 -1.03609,2.09472 -1.716782,3.32358 -1.841009,3.32358 -0.0675,0 -0.122736,-0.2281 -0.122736,-0.50689 0,-0.35774 -0.09933,-0.57426 -0.337614,-0.73591 -0.295103,-0.20021 -0.313565,-0.26908 -0.14662,-0.54694 0.144804,-0.24101 0.150125,-0.39426 0.022,-0.63366 -0.128352,-0.23983 -0.107668,-0.78936 0.08599,-2.28482 0.181704,-1.40311 0.240075,-2.72804 0.203081,-4.60976 -0.05627,-2.86256 -0.131511,-3.13624 -0.862179,-3.13624 -0.626751,0 -1.060304,0.41089 -1.523964,1.4443 -0.236036,0.52608 -0.501013,0.95651 -0.588836,0.95651 -0.08782,0 -0.462022,0.2787 -0.831555,0.61932 -0.652029,0.60102 -0.870819,1.19068 -0.521825,1.40637 0.384741,0.23778 0.0872,0.76398 -1.047402,1.85235 -1.54522,1.48226 -2.357092,2.59034 -2.653904,3.62218 -0.130935,0.45518 -0.364547,1.07812 -0.519138,1.38431 -0.154593,0.30619 -0.281077,0.85279 -0.281077,1.21467 0,0.46738 -0.08692,0.7366 -0.300101,0.92953 -0.404244,0.36584 -0.399492,1.53107 0.01139,2.7939 0.376012,1.15565 0.633857,2.79177 0.477994,3.03302 -0.243094,0.37629 -0.470574,1.88982 -0.479756,3.19206 -0.0093,1.31914 -0.02746,1.38974 -0.525117,2.0415 -0.551432,0.72219 -1.38848,1.21777 -1.926916,1.14085 -0.554549,-0.0792 -0.460958,-0.51064 0.295357,-1.36147 0.396859,-0.44645 0.808018,-0.94108 0.913688,-1.09919 0.135821,-0.20322 0.216441,-0.2325 0.275092,-0.0999 0.135839,0.30709 0.309962,0.21578 0.510156,-0.26753 0.128116,-0.30929 0.156939,-0.80342 0.08997,-1.5424 -0.07677,-0.84718 -0.04916,-1.15262 0.125029,-1.38303 0.259851,-0.34373 0.32845,-2.69492 0.08305,-2.84658 -0.08253,-0.051 -0.15005,-0.26997 -0.15005,-0.4866 0,-0.27567 -0.223021,-0.60882 -0.743291,-1.11029 l -0.743292,-0.71644 0.368164,-1.05377 c 0.202491,-0.57957 0.368165,-1.14516 0.368165,-1.25687 0,-0.2648 0.551522,-1.98085 0.852809,-2.65349 0.356868,-0.79674 1.812914,-3.74607 2.190047,-4.4361 0.183306,-0.33539 0.412196,-0.80805 0.508643,-1.05035 0.83794,-2.10515 1.286082,-2.96053 1.754893,-3.3496 0.287947,-0.23898 0.322107,-0.7806 0.06542,-1.03729 -0.467134,-0.46713 -1.297073,-0.0217 -2.897607,1.55505 -0.413534,0.4074 -1.198933,1.05402 -1.745332,1.43695 -0.756958,0.53048 -1.20307,1.00543 -1.874006,1.99516 -0.484305,0.71442 -1.300839,1.89781 -1.814521,2.62975 -1.410461,2.00976 -1.448661,2.14311 -1.51675,5.29496 -0.03705,1.715 -0.524743,1.43348 -0.844791,-0.48767 -0.192482,-1.15541 -0.51528,-1.31338 -0.766551,-0.37513 -0.08841,0.33011 -0.202618,0.70149 -0.253802,0.82528 -0.05119,0.12379 -0.120614,0.36012 -0.154285,0.52518 -0.05046,0.24734 -0.102103,0.20776 -0.293722,-0.22507 -0.180175,-0.40699 -0.203199,-0.71092 -0.102297,-1.35046 0.173083,-1.09708 0.792337,-2.77405 1.31701,-3.56655 0.545727,-0.82431 3.316753,-3.87044 5.342177,-5.87256 2.314606,-2.28797 2.698658,-3.26162 2.03327,-5.154771 -0.604906,-1.721069 -0.267931,-3.234873 1.137293,-5.109099 0.444965,-0.593472 1.332538,-1.520794 1.972385,-2.060712 1.379747,-1.164256 1.842001,-1.796003 1.842001,-2.517382 0,-0.705368 -0.334959,-1.03641 -1.339353,-1.32369 -0.993666,-0.284205 -5.76904,-2.306424 -6.838401,-2.895837 -0.41264,-0.227442 -0.986584,-0.503179 -1.275432,-0.612752 -1.274165,-0.483345 -6.24993,-2.743995 -6.466767,-2.938059 C 16.709125,80.553457 16.033897,80.165644 15.340433,79.80962 9.4863898,76.804169 8.4605859,76.125927 7.1669355,74.405458 6.5999452,73.651398 5.6776735,72.574924 5.1174431,72.013295 3.9280945,70.820974 3.5010119,70.070395 3.5010119,69.172486 c 0,-0.839888 0.3170127,-1.277278 1.017155,-1.403396 0.3071077,-0.05532 0.641937,-0.166867 0.7440653,-0.247882 0.6516599,-0.516948 6.5547568,-0.805009 6.9417208,-0.338746 0.222851,0.268519 0.477352,0.287907 0.711086,0.05417 0.276413,-0.276414 2.727541,-0.156175 3.897065,0.191167 0.560313,0.166409 1.558933,0.434784 2.219157,0.596387 0.660223,0.161603 1.347776,0.368031 1.527897,0.458728 0.18012,0.0907 0.442339,0.120831 0.582708,0.06697 0.297946,-0.114331 1.888787,0.148464 2.540967,0.419752 0.914772,0.380518 2.09797,0.718679 5.063838,1.447266 2.718173,0.667739 3.766857,0.953559 6.319733,1.722453 0.401485,0.120921 1.027558,0.219856 1.391275,0.219856 0.624376,0 0.686252,-0.03934 1.108148,-0.704605 0.250504,-0.395001 0.446848,-0.910965 0.446848,-1.174246 0,-0.258304 0.175575,-0.970955 0.390165,-1.583669 0.367031,-1.047972 0.384123,-1.22079 0.288277,-2.914634 -0.06704,-1.184787 -0.04571,-1.947222 0.06237,-2.22929 0.09034,-0.235777 0.235896,-1.087156 0.323447,-1.891958 0.184823,-1.698903 0.02339,-2.921805 -0.478796,-3.627062 -0.259976,-0.365101 -0.307363,-0.597865 -0.247836,-1.217369 0.04048,-0.421275 0.01193,-0.989295 -0.06344,-1.262265 -0.0897,-0.324871 -0.08155,-0.599991 0.0236,-0.796465 0.123897,-0.231503 0.09582,-0.42934 -0.122772,-0.864976 -0.155875,-0.310653 -0.255077,-0.644182 -0.220447,-0.741179 0.03463,-0.09699 -0.07603,-0.448799 -0.245905,-0.781788 -0.497124,-0.974444 -0.310993,-1.967846 0.36871,-1.967846 0.113295,0 0.389944,-0.158229 0.614777,-0.351622 0.407855,-0.350822 0.408881,-0.356845 0.450907,-2.645876 0.03278,-1.785378 0.09887,-2.413839 0.297967,-2.833406 0.239157,-0.503984 0.239652,-0.584741 0.0076,-1.238068 -0.167677,-0.472105 -0.250353,-1.203672 -0.254768,-2.254309 -0.0036,-0.855468 -0.07624,-1.859248 -0.161443,-2.230623 -0.0852,-0.371376 -0.221668,-1.080366 -0.303265,-1.575533 -0.294431,-1.786764 -0.630699,-3.226089 -0.753703,-3.226089 -0.06903,0 -0.125506,0.135045 -0.125506,0.3001 0,0.165057 -0.0621,0.300102 -0.137991,0.300102 -0.244634,0 -0.602415,-1.390101 -0.695154,-2.700913 -0.04963,-0.701486 -0.152655,-1.410476 -0.228944,-1.575532 -0.261093,-0.564879 -0.574587,-1.776701 -0.49355,-1.907822 0.04453,-0.07205 0.01543,-0.212454 -0.06467,-0.311999 -0.0801,-0.09954 -0.195128,-0.41732 -0.25561,-0.706168 -0.06048,-0.288848 -0.230298,-0.77702 -0.37737,-1.084827 -0.147069,-0.307807 -0.315503,-0.983035 -0.374299,-1.500508 -0.141202,-1.242758 -0.712936,-3.033168 -1.355158,-4.243739 -0.285324,-0.537831 -0.518771,-1.036541 -0.518771,-1.108243 0,-0.07171 -0.309033,-0.636119 -0.686741,-1.254255 -0.377707,-0.618135 -0.75364,-1.385653 -0.835407,-1.705594 -0.373373,-1.460949 -0.45585,-2.167798 -0.386711,-3.314205 0.06976,-1.156708 0.105135,-1.262252 0.57894,-1.727344 0.277551,-0.272448 0.883557,-0.933464 1.346679,-1.468928 0.943351,-1.0907056 2.575933,-2.1506484 4.529687,-2.9408702 0.643668,-0.2603399 1.211985,-0.5150247 1.262927,-0.5659662 0.05094,-0.05094 0.206282,-0.09262 0.3452,-0.09262 0.138918,0 0.519682,-0.1934866 0.846138,-0.4299707 0.326456,-0.2364851 1.298788,-0.7778639 2.160735,-1.2030653 1.353918,-0.6678907 1.589848,-0.7421027 1.73377,-0.5453581 0.240551,0.3288361 0.476876,0.2825683 0.944454,-0.1849045 0.227003,-0.226951 0.812634,-0.6101069 1.301403,-0.851456 0.488767,-0.241349 0.989952,-0.5212638 1.113743,-0.6220314 0.16827,-0.1369723 0.464477,-0.1462713 1.17362,-0.036842 0.78624,0.1213272 1.038059,0.1038962 1.471682,-0.1018717 0.435141,-0.2064881 0.563046,-0.2151243 0.760387,-0.051347 0.332241,0.2757351 0.973103,0.1632938 1.275295,-0.2237526 0.203692,-0.2608902 0.292044,-0.2885115 0.442649,-0.1383846 0.195796,0.1951724 2.439543,0.270035 2.891808,0.096484 0.347736,-0.1334386 0.289446,-0.3590728 -0.09276,-0.3590728 -0.233088,0 -0.283237,-0.046873 -0.170632,-0.159481 0.08785,-0.087853 1.297543,-0.2210438 2.69341,-0.2965535 1.393662,-0.075391 2.871544,-0.1814304 3.284184,-0.2356433 0.41264,-0.054212 1.256675,-0.1093532 1.875634,-0.1225359 1.037863,-0.022105 1.761766,-0.1127609 4.540884,-0.56867045 0.965896,-0.15845355 1.032201,-0.15001095 1.378748,0.17555369 0.386059,0.36268306 0.397296,0.36275616 2.183106,0.0142214 0.453903,-0.0885877 1.075473,-0.12104478 1.381269,-0.0721256 0.708013,0.11326277 4.991142,0.24638851 6.921674,0.21513557 1.238229,-0.0200453 1.524184,0.0200487 1.777405,0.24921099 0.237139,0.2146066 0.515639,0.2665699 1.300304,0.2426117 1.212471,-0.037021 2.736461,0.3480013 2.832599,0.7156282 0.07884,0.3014736 0.654401,0.5929021 1.170972,0.5929021 0.200766,0 0.619606,0.09401 0.930755,0.2089111 1.18966,0.4393158 2.545315,0.8181897 3.26664,0.912949 0.412639,0.054207 1.279917,0.241438 1.927284,0.4160689 0.936424,0.2526051 1.204054,0.3885882 1.309228,0.6652213 0.139041,0.365699 0.358758,0.4500688 0.514756,0.1976606 0.162953,-0.2636653 0.806938,-0.1645902 0.975329,0.1500504 0.09077,0.1696094 0.314179,0.3001018 0.513784,0.3001018 0.244263,0 0.346749,0.080978 0.332335,0.2625883 -0.02108,0.2656156 0.04859,0.2722937 0.954491,0.091497 0.217253,-0.043359 1.132918,0.174793 2.175734,0.5183558 0.990342,0.3262725 2.273272,0.7392961 2.850972,0.9178309 0.57769,0.178536 1.54705,0.5632709 2.15413,0.8549694 0.60707,0.2916975 1.36196,0.6214553 1.67754,0.7327959 0.74274,0.2620538 2.18169,1.0533328 2.82763,1.5549038 1.06086,0.823774 2.22095,1.677471 2.94394,2.166424 1.14625,0.775199 2.29664,1.871915 2.57183,2.451844 0.13617,0.286957 0.52477,0.73679 0.86356,0.999629 0.33879,0.262839 1.16759,1.051833 1.8418,1.75332 0.67419,0.701488 1.40057,1.444239 1.61417,1.650558 0.21361,0.206319 0.78283,0.754704 1.26493,1.21863 1.29175,1.243046 1.29378,1.826349 0.0117,3.357917 -0.21792,0.260327 -1.25876,2.888126 -1.57499,3.976343 -0.06,0.20632 -0.26285,0.577695 -0.45088,0.825279 -0.18801,0.247584 -0.38975,0.64206 -0.44829,0.876613 -0.0585,0.234554 -0.42736,0.793197 -0.8196,1.241428 -0.64357,0.735451 -1.79823,2.793076 -1.79823,3.204494 0,0.291325 -0.73694,1.629033 -1.17725,2.136948 -0.36105,0.416504 -1.39285,2.402484 -2.32211,4.469548 -0.53627,1.192867 -0.90328,2.37092 -0.96351,3.092689 -0.057,0.683034 -0.022,0.799945 0.32008,1.069024 0.21124,0.166165 0.94282,0.477882 1.62572,0.692703 0.68291,0.214821 1.64678,0.638222 2.14195,0.94089 0.85645,0.523502 2.60101,1.098925 3.34849,1.104455 0.19111,0.0013 0.47232,0.06939 0.62492,0.151056 0.26505,0.141852 0.26044,0.183738 -0.10335,0.937817 -0.20944,0.434133 -0.53836,1.145567 -0.73091,1.580964 -0.19257,0.435398 -0.55166,1.076864 -0.798,1.425482 -0.24633,0.348617 -0.83237,1.511647 -1.3023,2.584509 -0.46994,1.072863 -0.98595,2.137768 -1.14667,2.366458 -0.16074,0.228688 -0.42778,0.802632 -0.59344,1.275431 -0.29091,0.830309 -0.80051,1.8335 -1.74569,3.436515 -0.26026,0.441411 -0.71065,1.709402 -1.06519,2.998883 -0.52906,1.92424 -0.61418,2.441724 -0.6137,3.730998 4.5e-4,1.227484 0.0541,1.584655 0.2979,1.984552 0.27671,0.453841 0.35387,0.487665 1.11238,0.487665 0.50601,0 1.09001,-0.121534 1.54022,-0.320535 0.67922,-0.300219 1.08181,-0.328386 6.35209,-0.444416 3.53375,-0.0778 5.90598,-0.07004 6.37715,0.02087 0.41264,0.07961 1.78706,0.315925 3.05426,0.525146 3.3214,0.548376 5.70239,1.194876 7.50017,2.036485 l 1.55562,0.728241 -0.10903,1.090406 c -0.13787,1.378959 -0.19579,1.518118 -1.03975,2.498005 -0.38246,0.444068 -0.79103,0.992351 -0.90794,1.218406 -0.41863,0.809539 -2.17564,2.206914 -3.7184,2.957294 -0.43586,0.211995 -0.77304,0.495164 -0.85908,0.721459 -0.0779,0.204873 -0.21205,0.372498 -0.29812,0.372498 -0.19091,0 -3.72233,1.74248 -6.97834,3.443258 -1.32044,0.689738 -2.94099,1.522136 -3.60122,1.84977 -1.42634,0.70782 -1.72558,0.947364 -1.72558,1.381328 0,0.380046 0.40739,0.775872 1.35208,1.313716 1.04906,0.597264 3.17864,3.265731 2.60622,3.265731 -0.2383,0 -1.5478,-0.920196 -2.60464,-1.830291 -0.64189,-0.552755 -1.63107,-1.252675 -2.19818,-1.555377 -0.56711,-0.302703 -1.09526,-0.610079 -1.17366,-0.68306 -0.0784,-0.07298 -0.3235,-0.132692 -0.54466,-0.132692 -0.31118,0 -0.5411,0.184088 -1.0167,0.81401 -0.7035,0.931771 -0.98626,1.066173 -1.77962,0.84586 -0.31232,-0.08673 -0.92921,-0.158067 -1.37088,-0.158526 -0.7945,-9e-4 -0.81305,0.0097 -1.74347,0.987014 l -0.94043,0.987852 0.0257,3.026005 0.0257,3.026004 0.56726,1.350456 c 0.31199,0.74274 0.6045,1.51926 0.65001,1.72558 0.0455,0.20632 0.13331,0.44265 0.1951,0.52517 0.0618,0.0825 0.21964,0.62769 0.35077,1.21147 0.13113,0.58378 0.40246,1.36029 0.60295,1.72558 0.20049,0.3653 0.41049,0.9005 0.46667,1.18935 0.0562,0.28885 0.26516,1.00843 0.46439,1.59907 0.32533,0.96439 0.35256,1.23248 0.26711,2.629 -0.0948,1.55001 -0.0936,1.5579 0.38698,2.40937 0.72471,1.28412 1.29647,3.9172 1.4276,6.57446 0.0902,1.82847 0.0699,2.23885 -0.12949,2.61845 -0.13006,0.24759 -0.23689,0.62808 -0.23741,0.84553 -0.001,0.2555 -0.13364,0.48234 -0.37604,0.64118 -0.34141,0.2237 -0.37513,0.34085 -0.37513,1.30348 0,1.41654 0.4732,2.272 1.52675,2.76012 0.45443,0.21054 0.92139,0.59205 1.24762,1.01929 0.34818,0.45599 0.70917,0.74219 1.08674,0.86156 0.31096,0.0983 0.91418,0.3714 1.3405,0.60687 0.84342,0.46585 2.42664,1.04003 2.86772,1.04003 0.15188,0 0.40722,0.0992 0.56741,0.22031 0.1602,0.12117 0.44991,0.22245 0.64379,0.22507 0.19388,0.003 0.74819,0.24901 1.23181,0.54751 0.82759,0.51082 0.98773,0.55143 2.72352,0.69057 1.01433,0.0813 6.18258,0.17833 11.48499,0.2156 l 9.64076,0.0678 v 33.60327 33.60327 H 74.474998 0.4999977 Z M 33.386801,134.98212 c 0.354443,-0.32076 0.351668,-0.65197 -0.0055,-0.65197 -0.308998,0 -1.070591,0.54146 -1.070591,0.76114 0,0.23419 0.78461,0.15458 1.076052,-0.10917 z M 38.012675,33.054782 c 0,-0.34277 -0.236573,-0.533142 -0.378053,-0.304218 -0.126049,0.203947 0.02077,0.595464 0.223294,0.595464 0.08512,0 0.154759,-0.13106 0.154759,-0.291246 z M 29.159683,136.36811 c 0,-0.37711 0.176607,-0.6875 0.391181,-0.6875 0.114961,0 0.209023,0.10128 0.209023,0.22507 0,0.12504 0.133378,0.22508 0.300101,0.22508 0.357758,0 0.398026,0.23042 0.06275,0.35907 -0.431808,0.16571 -0.963058,0.0986 -0.963058,-0.12172 z m 3.796176,-4.62633 c -0.296556,-0.3256 -0.645111,-0.90623 -0.645111,-1.07465 0,-0.0448 0.270091,0.21147 0.600204,0.5696 0.330111,0.35813 0.600202,0.69423 0.600202,0.7469 0,0.19702 -0.25785,0.0847 -0.555295,-0.24185 z m 1.157796,-14.39602 c -0.0012,-0.13955 0.06522,-0.29546 0.147753,-0.34647 0.189904,-0.11736 0.189904,0.0813 0,0.37513 -0.125353,0.19397 -0.145773,0.19001 -0.147753,-0.0287 z M 53.317849,1.8353799 c 0,-0.082529 0.168807,-0.1500515 0.375126,-0.1500515 0.206319,0 0.375126,0.067523 0.375126,0.1500515 0,0.082528 -0.168807,0.1500503 -0.375126,0.1500503 -0.206319,0 -0.375126,-0.067523 -0.375126,-0.1500503 z"
       style="fill:#690303;stroke:#000000;stroke-width:1;stroke-miterlimit:4;stroke-dasharray:none;stroke-opacity:1" />
    <text
       id="R-Text-ID"
       y="89.08252"
       x="5.1599975"
       style="font-style:normal;font-variant:normal;font-weight:normal;font-stretch:normal;font-size:120px;line-height:1.25;font-family:Alegreya;-inkscape-font-specification:'Alegreya, Normal';font-variant-ligatures:normal;font-variant-caps:normal;font-variant-numeric:normal;font-feature-settings:normal;text-align:start;letter-spacing:0px;word-spacing:0px;writing-mode:lr-tb;text-anchor:start;fill:#ffffff;fill-opacity:1;stroke:#000000;stroke-width:3;stroke-miterlimit:4;stroke-dasharray:none;stroke-opacity:1"
       xml:space="preserve"><tspan
         style="font-style:normal;font-variant:normal;font-weight:normal;font-stretch:normal;font-size:120px;font-family:Alegreya;-inkscape-font-specification:'Alegreya, Normal';font-variant-ligatures:normal;font-variant-caps:normal;font-variant-numeric:normal;font-feature-settings:normal;text-align:start;writing-mode:lr-tb;text-anchor:start;fill:#ffffff;fill-opacity:1;stroke:#000000;stroke-width:3;stroke-miterlimit:4;stroke-dasharray:none;stroke-opacity:1"
         y="89.08252"
         x="5.1599975"
         id="tspan949">R</tspan></text>
    <text
       id="D-Text-ID"
       y="188.06253"
       x="57.389996"
       style="font-style:normal;font-variant:normal;font-weight:normal;font-stretch:normal;font-size:120px;line-height:1.25;font-family:Alegreya;-inkscape-font-specification:'Alegreya, Normal';font-variant-ligatures:normal;font-variant-caps:normal;font-variant-numeric:normal;font-feature-settings:normal;text-align:start;letter-spacing:0px;word-spacing:0px;writing-mode:lr-tb;text-anchor:start;fill:#ffffff;fill-opacity:1;stroke:#000000;stroke-width:3;stroke-miterlimit:4;stroke-dasharray:none;stroke-opacity:1"
       xml:space="preserve"><tspan
         style="font-style:normal;font-variant:normal;font-weight:normal;font-stretch:normal;font-size:120px;font-family:Alegreya;-inkscape-font-specification:'Alegreya, Normal';font-variant-ligatures:normal;font-variant-caps:normal;font-variant-numeric:normal;font-feature-settings:normal;text-align:start;writing-mode:lr-tb;text-anchor:start;fill:#ffffff;fill-opacity:1;stroke:#000000;stroke-width:3;stroke-miterlimit:4;stroke-dasharray:none;stroke-opacity:1"
         y="188.06253"
         x="57.389996"
         id="tspan953">D</tspan></text>
  </g>
</svg>
